<mxfile host="app.diagrams.net" modified="2023-09-27T01:12:59.472Z" agent="Mozilla/5.0 (Windows NT 10.0; Win64; x64) AppleWebKit/537.36 (KHTML, like Gecko) Chrome/116.0.0.0 Safari/537.36" etag="1FJS-uKhdU86HPNirxkU" version="21.7.5" type="github">
  <diagram id="R2lEEEUBdFMjLlhIrx00" name="Page-1">
    <mxGraphModel dx="1798" dy="968" grid="1" gridSize="10" guides="1" tooltips="1" connect="1" arrows="1" fold="1" page="1" pageScale="1" pageWidth="850" pageHeight="1100" math="0" shadow="0" extFonts="Permanent Marker^https://fonts.googleapis.com/css?family=Permanent+Marker">
      <root>
        <mxCell id="0" />
        <mxCell id="1" parent="0" />
        <mxCell id="C-vyLk0tnHw3VtMMgP7b-1" value="" style="edgeStyle=entityRelationEdgeStyle;endArrow=ERzeroToMany;startArrow=ERmandOne;endFill=1;startFill=0;entryX=-0.009;entryY=0.35;entryDx=0;entryDy=0;entryPerimeter=0;exitX=0.998;exitY=0.111;exitDx=0;exitDy=0;exitPerimeter=0;" parent="1" source="C-vyLk0tnHw3VtMMgP7b-24" target="LShmClLfT84cLfDmFWbB-32" edge="1">
          <mxGeometry width="100" height="100" relative="1" as="geometry">
            <mxPoint x="290" y="56" as="sourcePoint" />
            <mxPoint x="384" y="80" as="targetPoint" />
            <Array as="points">
              <mxPoint x="330" y="50" />
              <mxPoint x="310" y="130" />
              <mxPoint x="319" y="350" />
              <mxPoint x="360" y="280" />
              <mxPoint x="340" y="310" />
            </Array>
          </mxGeometry>
        </mxCell>
        <mxCell id="C-vyLk0tnHw3VtMMgP7b-2" value="Customers" style="shape=table;startSize=30;container=1;collapsible=1;childLayout=tableLayout;fixedRows=1;rowLines=0;fontStyle=1;align=center;resizeLast=1;" parent="1" vertex="1">
          <mxGeometry x="40" y="220" width="250" height="170" as="geometry" />
        </mxCell>
        <mxCell id="C-vyLk0tnHw3VtMMgP7b-3" value="" style="shape=partialRectangle;collapsible=0;dropTarget=0;pointerEvents=0;fillColor=none;points=[[0,0.5],[1,0.5]];portConstraint=eastwest;top=0;left=0;right=0;bottom=1;" parent="C-vyLk0tnHw3VtMMgP7b-2" vertex="1">
          <mxGeometry y="30" width="250" height="40" as="geometry" />
        </mxCell>
        <mxCell id="C-vyLk0tnHw3VtMMgP7b-4" value="PK" style="shape=partialRectangle;overflow=hidden;connectable=0;fillColor=none;top=0;left=0;bottom=0;right=0;fontStyle=1;" parent="C-vyLk0tnHw3VtMMgP7b-3" vertex="1">
          <mxGeometry width="30" height="40" as="geometry">
            <mxRectangle width="30" height="40" as="alternateBounds" />
          </mxGeometry>
        </mxCell>
        <mxCell id="C-vyLk0tnHw3VtMMgP7b-5" value="customer_id" style="shape=partialRectangle;overflow=hidden;connectable=0;fillColor=none;top=0;left=0;bottom=0;right=0;align=left;spacingLeft=6;fontStyle=1;" parent="C-vyLk0tnHw3VtMMgP7b-3" vertex="1">
          <mxGeometry x="30" width="220" height="40" as="geometry">
            <mxRectangle width="220" height="40" as="alternateBounds" />
          </mxGeometry>
        </mxCell>
        <mxCell id="C-vyLk0tnHw3VtMMgP7b-6" value="" style="shape=partialRectangle;collapsible=0;dropTarget=0;pointerEvents=0;fillColor=none;points=[[0,0.5],[1,0.5]];portConstraint=eastwest;top=0;left=0;right=0;bottom=0;" parent="C-vyLk0tnHw3VtMMgP7b-2" vertex="1">
          <mxGeometry y="70" width="250" height="100" as="geometry" />
        </mxCell>
        <mxCell id="C-vyLk0tnHw3VtMMgP7b-7" value="" style="shape=partialRectangle;overflow=hidden;connectable=0;fillColor=none;top=0;left=0;bottom=0;right=0;" parent="C-vyLk0tnHw3VtMMgP7b-6" vertex="1">
          <mxGeometry width="30" height="100" as="geometry">
            <mxRectangle width="30" height="100" as="alternateBounds" />
          </mxGeometry>
        </mxCell>
        <mxCell id="C-vyLk0tnHw3VtMMgP7b-8" value="customer_nameÂ &#xa;customer_streetAddress NOT NULL&#xa;customer_city NOT NULL&#xa;customer_state NOT NULL&#xa;customer_zipcode NOT NULL&#xa;phone_number UNIQUE&#xa;is_active" style="shape=partialRectangle;overflow=hidden;connectable=0;fillColor=none;top=0;left=0;bottom=0;right=0;align=left;spacingLeft=6;strokeColor=#FF3333;" parent="C-vyLk0tnHw3VtMMgP7b-6" vertex="1">
          <mxGeometry x="30" width="220" height="100" as="geometry">
            <mxRectangle width="220" height="100" as="alternateBounds" />
          </mxGeometry>
        </mxCell>
        <mxCell id="C-vyLk0tnHw3VtMMgP7b-13" value="Transaction" style="shape=table;startSize=30;container=1;collapsible=1;childLayout=tableLayout;fixedRows=1;rowLines=0;fontStyle=1;align=center;resizeLast=1;" parent="1" vertex="1">
          <mxGeometry x="800" y="60" width="250" height="120" as="geometry" />
        </mxCell>
        <mxCell id="C-vyLk0tnHw3VtMMgP7b-14" value="" style="shape=partialRectangle;collapsible=0;dropTarget=0;pointerEvents=0;fillColor=none;points=[[0,0.5],[1,0.5]];portConstraint=eastwest;top=0;left=0;right=0;bottom=1;" parent="C-vyLk0tnHw3VtMMgP7b-13" vertex="1">
          <mxGeometry y="30" width="250" height="30" as="geometry" />
        </mxCell>
        <mxCell id="C-vyLk0tnHw3VtMMgP7b-15" value="PK" style="shape=partialRectangle;overflow=hidden;connectable=0;fillColor=none;top=0;left=0;bottom=0;right=0;fontStyle=1;" parent="C-vyLk0tnHw3VtMMgP7b-14" vertex="1">
          <mxGeometry width="30" height="30" as="geometry">
            <mxRectangle width="30" height="30" as="alternateBounds" />
          </mxGeometry>
        </mxCell>
        <mxCell id="C-vyLk0tnHw3VtMMgP7b-16" value="transaction_number" style="shape=partialRectangle;overflow=hidden;connectable=0;fillColor=none;top=0;left=0;bottom=0;right=0;align=left;spacingLeft=6;fontStyle=0;" parent="C-vyLk0tnHw3VtMMgP7b-14" vertex="1">
          <mxGeometry x="30" width="220" height="30" as="geometry">
            <mxRectangle width="220" height="30" as="alternateBounds" />
          </mxGeometry>
        </mxCell>
        <mxCell id="C-vyLk0tnHw3VtMMgP7b-17" value="" style="shape=partialRectangle;collapsible=0;dropTarget=0;pointerEvents=0;fillColor=none;points=[[0,0.5],[1,0.5]];portConstraint=eastwest;top=0;left=0;right=0;bottom=0;" parent="C-vyLk0tnHw3VtMMgP7b-13" vertex="1">
          <mxGeometry y="60" width="250" height="60" as="geometry" />
        </mxCell>
        <mxCell id="C-vyLk0tnHw3VtMMgP7b-18" value="" style="shape=partialRectangle;overflow=hidden;connectable=0;fillColor=none;top=0;left=0;bottom=0;right=0;" parent="C-vyLk0tnHw3VtMMgP7b-17" vertex="1">
          <mxGeometry width="30" height="60" as="geometry">
            <mxRectangle width="30" height="60" as="alternateBounds" />
          </mxGeometry>
        </mxCell>
        <mxCell id="C-vyLk0tnHw3VtMMgP7b-19" value="sale_date&#xa;sale_price" style="shape=partialRectangle;overflow=hidden;connectable=0;fillColor=none;top=0;left=0;bottom=0;right=0;align=left;spacingLeft=6;fontSize=16;" parent="C-vyLk0tnHw3VtMMgP7b-17" vertex="1">
          <mxGeometry x="30" width="220" height="60" as="geometry">
            <mxRectangle width="220" height="60" as="alternateBounds" />
          </mxGeometry>
        </mxCell>
        <mxCell id="C-vyLk0tnHw3VtMMgP7b-23" value="Rugs" style="shape=table;startSize=30;container=1;collapsible=1;childLayout=tableLayout;fixedRows=1;rowLines=0;fontStyle=1;align=center;resizeLast=1;" parent="1" vertex="1">
          <mxGeometry x="40" y="20" width="250" height="180" as="geometry">
            <mxRectangle x="120" y="120" width="100" height="30" as="alternateBounds" />
          </mxGeometry>
        </mxCell>
        <mxCell id="C-vyLk0tnHw3VtMMgP7b-24" value="" style="shape=partialRectangle;collapsible=0;dropTarget=0;pointerEvents=0;fillColor=none;points=[[0,0.5],[1,0.5]];portConstraint=eastwest;top=0;left=0;right=0;bottom=1;" parent="C-vyLk0tnHw3VtMMgP7b-23" vertex="1">
          <mxGeometry y="30" width="250" height="30" as="geometry" />
        </mxCell>
        <mxCell id="C-vyLk0tnHw3VtMMgP7b-25" value="PK" style="shape=partialRectangle;overflow=hidden;connectable=0;fillColor=none;top=0;left=0;bottom=0;right=0;fontStyle=1;" parent="C-vyLk0tnHw3VtMMgP7b-24" vertex="1">
          <mxGeometry width="30" height="30" as="geometry">
            <mxRectangle width="30" height="30" as="alternateBounds" />
          </mxGeometry>
        </mxCell>
        <mxCell id="C-vyLk0tnHw3VtMMgP7b-26" value="inventory_id" style="shape=partialRectangle;overflow=hidden;connectable=0;fillColor=none;top=0;left=0;bottom=0;right=0;align=left;spacingLeft=6;fontStyle=1;" parent="C-vyLk0tnHw3VtMMgP7b-24" vertex="1">
          <mxGeometry x="30" width="220" height="30" as="geometry">
            <mxRectangle width="220" height="30" as="alternateBounds" />
          </mxGeometry>
        </mxCell>
        <mxCell id="C-vyLk0tnHw3VtMMgP7b-27" value="" style="shape=partialRectangle;collapsible=0;dropTarget=0;pointerEvents=0;fillColor=none;points=[[0,0.5],[1,0.5]];portConstraint=eastwest;top=0;left=0;right=0;bottom=0;" parent="C-vyLk0tnHw3VtMMgP7b-23" vertex="1">
          <mxGeometry y="60" width="250" height="120" as="geometry" />
        </mxCell>
        <mxCell id="C-vyLk0tnHw3VtMMgP7b-28" value="" style="shape=partialRectangle;overflow=hidden;connectable=0;fillColor=none;top=0;left=0;bottom=0;right=0;" parent="C-vyLk0tnHw3VtMMgP7b-27" vertex="1">
          <mxGeometry width="30" height="120" as="geometry">
            <mxRectangle width="30" height="120" as="alternateBounds" />
          </mxGeometry>
        </mxCell>
        <mxCell id="C-vyLk0tnHw3VtMMgP7b-29" value="purchase_price&#xa;date_acquired&#xa;origin_country&#xa;year_made&#xa;rug_dimensions&#xa;primary_material&#xa;price_markup&#xa;list_price" style="shape=partialRectangle;overflow=hidden;connectable=0;fillColor=none;top=0;left=0;bottom=0;right=0;align=left;spacingLeft=6;" parent="C-vyLk0tnHw3VtMMgP7b-27" vertex="1">
          <mxGeometry x="30" width="220" height="120" as="geometry">
            <mxRectangle width="220" height="120" as="alternateBounds" />
          </mxGeometry>
        </mxCell>
        <mxCell id="LShmClLfT84cLfDmFWbB-31" value="" style="group" vertex="1" connectable="0" parent="1">
          <mxGeometry x="510" y="210" width="220" height="140" as="geometry" />
        </mxCell>
        <mxCell id="LShmClLfT84cLfDmFWbB-32" value="" style="shape=process;whiteSpace=wrap;html=1;backgroundOutline=1;fillStyle=solid;" vertex="1" parent="LShmClLfT84cLfDmFWbB-31">
          <mxGeometry width="220" height="140" as="geometry" />
        </mxCell>
        <mxCell id="LShmClLfT84cLfDmFWbB-33" value="" style="shape=internalStorage;whiteSpace=wrap;html=1;backgroundOutline=1;container=1;dx=50;dy=20;" vertex="1" parent="LShmClLfT84cLfDmFWbB-31">
          <mxGeometry x="20" width="180" height="140" as="geometry" />
        </mxCell>
        <mxCell id="LShmClLfT84cLfDmFWbB-34" value="&lt;b&gt;Rental&lt;/b&gt;" style="text;html=1;strokeColor=none;fillColor=none;align=center;verticalAlign=middle;whiteSpace=wrap;rounded=0;" vertex="1" parent="LShmClLfT84cLfDmFWbB-33">
          <mxGeometry x="20" width="160" height="20" as="geometry" />
        </mxCell>
        <mxCell id="LShmClLfT84cLfDmFWbB-36" value="CPK/FK" style="text;html=1;strokeColor=none;fillColor=none;align=center;verticalAlign=middle;whiteSpace=wrap;rounded=0;" vertex="1" parent="LShmClLfT84cLfDmFWbB-33">
          <mxGeometry y="65" width="50" height="30" as="geometry" />
        </mxCell>
        <mxCell id="LShmClLfT84cLfDmFWbB-37" value="CPK/FK" style="text;html=1;strokeColor=none;fillColor=none;align=center;verticalAlign=middle;whiteSpace=wrap;rounded=0;" vertex="1" parent="LShmClLfT84cLfDmFWbB-33">
          <mxGeometry y="95" width="50" height="30" as="geometry" />
        </mxCell>
        <mxCell id="LShmClLfT84cLfDmFWbB-38" value="CPK/FK" style="text;html=1;strokeColor=none;fillColor=none;align=center;verticalAlign=middle;whiteSpace=wrap;rounded=0;" vertex="1" parent="LShmClLfT84cLfDmFWbB-33">
          <mxGeometry y="35" width="50" height="30" as="geometry" />
        </mxCell>
        <mxCell id="LShmClLfT84cLfDmFWbB-35" value="inventory_id&lt;br&gt;&lt;br&gt;customer_id&lt;br&gt;&lt;br&gt;trial_number" style="text;html=1;strokeColor=none;fillColor=none;align=center;verticalAlign=middle;whiteSpace=wrap;rounded=0;" vertex="1" parent="LShmClLfT84cLfDmFWbB-31">
          <mxGeometry x="70" y="20" width="130" height="120" as="geometry" />
        </mxCell>
        <mxCell id="LShmClLfT84cLfDmFWbB-39" value="" style="edgeStyle=orthogonalEdgeStyle;endArrow=ERzeroToMany;startArrow=ERmandOne;endFill=1;startFill=0;entryX=-0.014;entryY=0.57;entryDx=0;entryDy=0;exitX=1;exitY=0.5;exitDx=0;exitDy=0;entryPerimeter=0;" edge="1" parent="1" source="C-vyLk0tnHw3VtMMgP7b-3" target="LShmClLfT84cLfDmFWbB-32">
          <mxGeometry width="100" height="100" relative="1" as="geometry">
            <mxPoint x="640" y="100" as="sourcePoint" />
            <mxPoint x="749" y="341" as="targetPoint" />
            <Array as="points">
              <mxPoint x="380" y="270" />
              <mxPoint x="380" y="290" />
            </Array>
          </mxGeometry>
        </mxCell>
        <mxCell id="LShmClLfT84cLfDmFWbB-44" value="Trials" style="shape=table;startSize=30;container=1;collapsible=1;childLayout=tableLayout;fixedRows=1;rowLines=0;fontStyle=1;align=center;resizeLast=1;" vertex="1" parent="1">
          <mxGeometry x="790" y="250" width="250" height="110" as="geometry" />
        </mxCell>
        <mxCell id="LShmClLfT84cLfDmFWbB-45" value="" style="shape=partialRectangle;collapsible=0;dropTarget=0;pointerEvents=0;fillColor=none;points=[[0,0.5],[1,0.5]];portConstraint=eastwest;top=0;left=0;right=0;bottom=1;" vertex="1" parent="LShmClLfT84cLfDmFWbB-44">
          <mxGeometry y="30" width="250" height="30" as="geometry" />
        </mxCell>
        <mxCell id="LShmClLfT84cLfDmFWbB-46" value="PK" style="shape=partialRectangle;overflow=hidden;connectable=0;fillColor=none;top=0;left=0;bottom=0;right=0;fontStyle=1;" vertex="1" parent="LShmClLfT84cLfDmFWbB-45">
          <mxGeometry width="30" height="30" as="geometry">
            <mxRectangle width="30" height="30" as="alternateBounds" />
          </mxGeometry>
        </mxCell>
        <mxCell id="LShmClLfT84cLfDmFWbB-47" value="trial_number" style="shape=partialRectangle;overflow=hidden;connectable=0;fillColor=none;top=0;left=0;bottom=0;right=0;align=left;spacingLeft=6;fontStyle=0;" vertex="1" parent="LShmClLfT84cLfDmFWbB-45">
          <mxGeometry x="30" width="220" height="30" as="geometry">
            <mxRectangle width="220" height="30" as="alternateBounds" />
          </mxGeometry>
        </mxCell>
        <mxCell id="LShmClLfT84cLfDmFWbB-48" value="" style="shape=partialRectangle;collapsible=0;dropTarget=0;pointerEvents=0;fillColor=none;points=[[0,0.5],[1,0.5]];portConstraint=eastwest;top=0;left=0;right=0;bottom=0;" vertex="1" parent="LShmClLfT84cLfDmFWbB-44">
          <mxGeometry y="60" width="250" height="50" as="geometry" />
        </mxCell>
        <mxCell id="LShmClLfT84cLfDmFWbB-49" value="" style="shape=partialRectangle;overflow=hidden;connectable=0;fillColor=none;top=0;left=0;bottom=0;right=0;" vertex="1" parent="LShmClLfT84cLfDmFWbB-48">
          <mxGeometry width="30" height="50" as="geometry">
            <mxRectangle width="30" height="50" as="alternateBounds" />
          </mxGeometry>
        </mxCell>
        <mxCell id="LShmClLfT84cLfDmFWbB-50" value="start_date&#xa;expect_return_date" style="shape=partialRectangle;overflow=hidden;connectable=0;fillColor=none;top=0;left=0;bottom=0;right=0;align=left;spacingLeft=6;fontSize=14;" vertex="1" parent="LShmClLfT84cLfDmFWbB-48">
          <mxGeometry x="30" width="220" height="50" as="geometry">
            <mxRectangle width="220" height="50" as="alternateBounds" />
          </mxGeometry>
        </mxCell>
        <mxCell id="LShmClLfT84cLfDmFWbB-61" value="" style="group" vertex="1" connectable="0" parent="1">
          <mxGeometry x="1120" y="60" width="210" height="100" as="geometry" />
        </mxCell>
        <mxCell id="LShmClLfT84cLfDmFWbB-41" value="" style="rounded=1;whiteSpace=wrap;html=1;fillStyle=hatch;" vertex="1" parent="LShmClLfT84cLfDmFWbB-61">
          <mxGeometry width="210" height="100" as="geometry" />
        </mxCell>
        <mxCell id="LShmClLfT84cLfDmFWbB-51" value="Transaction Returns" style="shape=table;startSize=30;container=1;collapsible=0;childLayout=tableLayout;fixedRows=1;rowLines=0;fontStyle=0;strokeColor=default;fontSize=16;perimeterSpacing=2;fillStyle=hatch;backgroundOutline=0;swimlaneHead=0;swimlaneBody=0;rounded=1;" vertex="1" parent="LShmClLfT84cLfDmFWbB-61">
          <mxGeometry y="10" width="210" height="90" as="geometry" />
        </mxCell>
        <mxCell id="LShmClLfT84cLfDmFWbB-52" value="" style="shape=tableRow;horizontal=0;startSize=0;swimlaneHead=0;swimlaneBody=0;top=0;left=0;bottom=0;right=0;collapsible=0;dropTarget=0;fillColor=none;points=[[0,0.5],[1,0.5]];portConstraint=eastwest;strokeColor=inherit;fontSize=16;" vertex="1" parent="LShmClLfT84cLfDmFWbB-51">
          <mxGeometry y="30" width="210" height="30" as="geometry" />
        </mxCell>
        <mxCell id="LShmClLfT84cLfDmFWbB-53" value="FK" style="shape=partialRectangle;html=1;whiteSpace=wrap;connectable=0;fillColor=none;top=0;left=0;bottom=0;right=0;overflow=hidden;pointerEvents=1;strokeColor=inherit;fontSize=16;" vertex="1" parent="LShmClLfT84cLfDmFWbB-52">
          <mxGeometry width="47" height="30" as="geometry">
            <mxRectangle width="47" height="30" as="alternateBounds" />
          </mxGeometry>
        </mxCell>
        <mxCell id="LShmClLfT84cLfDmFWbB-54" value="transaction_number" style="shape=partialRectangle;html=1;whiteSpace=wrap;connectable=0;fillColor=none;top=0;left=0;bottom=0;right=0;align=left;spacingLeft=6;overflow=hidden;strokeColor=inherit;fontSize=16;" vertex="1" parent="LShmClLfT84cLfDmFWbB-52">
          <mxGeometry x="47" width="163" height="30" as="geometry">
            <mxRectangle width="163" height="30" as="alternateBounds" />
          </mxGeometry>
        </mxCell>
        <mxCell id="LShmClLfT84cLfDmFWbB-58" value="" style="shape=tableRow;horizontal=0;startSize=0;swimlaneHead=0;swimlaneBody=0;top=0;left=0;bottom=0;right=0;collapsible=0;dropTarget=0;fillColor=none;points=[[0,0.5],[1,0.5]];portConstraint=eastwest;strokeColor=inherit;fontSize=16;" vertex="1" parent="LShmClLfT84cLfDmFWbB-51">
          <mxGeometry y="60" width="210" height="30" as="geometry" />
        </mxCell>
        <mxCell id="LShmClLfT84cLfDmFWbB-59" value="" style="shape=partialRectangle;html=1;whiteSpace=wrap;connectable=0;fillColor=none;top=0;left=0;bottom=0;right=0;overflow=hidden;strokeColor=inherit;fontSize=16;" vertex="1" parent="LShmClLfT84cLfDmFWbB-58">
          <mxGeometry width="47" height="30" as="geometry">
            <mxRectangle width="47" height="30" as="alternateBounds" />
          </mxGeometry>
        </mxCell>
        <mxCell id="LShmClLfT84cLfDmFWbB-60" value="trans_return_date" style="shape=partialRectangle;html=1;whiteSpace=wrap;connectable=0;fillColor=none;top=0;left=0;bottom=0;right=0;align=left;spacingLeft=6;overflow=hidden;strokeColor=inherit;fontSize=16;" vertex="1" parent="LShmClLfT84cLfDmFWbB-58">
          <mxGeometry x="47" width="163" height="30" as="geometry">
            <mxRectangle width="163" height="30" as="alternateBounds" />
          </mxGeometry>
        </mxCell>
        <mxCell id="LShmClLfT84cLfDmFWbB-69" value="" style="group" vertex="1" connectable="0" parent="1">
          <mxGeometry x="1100" y="240" width="210" height="100" as="geometry" />
        </mxCell>
        <mxCell id="LShmClLfT84cLfDmFWbB-70" value="" style="rounded=1;whiteSpace=wrap;html=1;fillStyle=hatch;" vertex="1" parent="LShmClLfT84cLfDmFWbB-69">
          <mxGeometry width="210" height="100" as="geometry" />
        </mxCell>
        <mxCell id="LShmClLfT84cLfDmFWbB-71" value="Trial Returns" style="shape=table;startSize=30;container=1;collapsible=0;childLayout=tableLayout;fixedRows=1;rowLines=0;fontStyle=0;strokeColor=default;fontSize=16;perimeterSpacing=2;fillStyle=hatch;backgroundOutline=0;swimlaneHead=0;swimlaneBody=0;rounded=1;" vertex="1" parent="LShmClLfT84cLfDmFWbB-69">
          <mxGeometry y="10" width="210" height="90" as="geometry" />
        </mxCell>
        <mxCell id="LShmClLfT84cLfDmFWbB-72" value="" style="shape=tableRow;horizontal=0;startSize=0;swimlaneHead=0;swimlaneBody=0;top=0;left=0;bottom=0;right=0;collapsible=0;dropTarget=0;fillColor=none;points=[[0,0.5],[1,0.5]];portConstraint=eastwest;strokeColor=inherit;fontSize=16;" vertex="1" parent="LShmClLfT84cLfDmFWbB-71">
          <mxGeometry y="30" width="210" height="30" as="geometry" />
        </mxCell>
        <mxCell id="LShmClLfT84cLfDmFWbB-73" value="FK" style="shape=partialRectangle;html=1;whiteSpace=wrap;connectable=0;fillColor=none;top=0;left=0;bottom=0;right=0;overflow=hidden;pointerEvents=1;strokeColor=inherit;fontSize=16;" vertex="1" parent="LShmClLfT84cLfDmFWbB-72">
          <mxGeometry width="47" height="30" as="geometry">
            <mxRectangle width="47" height="30" as="alternateBounds" />
          </mxGeometry>
        </mxCell>
        <mxCell id="LShmClLfT84cLfDmFWbB-74" value="traial_number" style="shape=partialRectangle;html=1;whiteSpace=wrap;connectable=0;fillColor=none;top=0;left=0;bottom=0;right=0;align=left;spacingLeft=6;overflow=hidden;strokeColor=inherit;fontSize=16;" vertex="1" parent="LShmClLfT84cLfDmFWbB-72">
          <mxGeometry x="47" width="163" height="30" as="geometry">
            <mxRectangle width="163" height="30" as="alternateBounds" />
          </mxGeometry>
        </mxCell>
        <mxCell id="LShmClLfT84cLfDmFWbB-75" value="" style="shape=tableRow;horizontal=0;startSize=0;swimlaneHead=0;swimlaneBody=0;top=0;left=0;bottom=0;right=0;collapsible=0;dropTarget=0;fillColor=none;points=[[0,0.5],[1,0.5]];portConstraint=eastwest;strokeColor=inherit;fontSize=16;" vertex="1" parent="LShmClLfT84cLfDmFWbB-71">
          <mxGeometry y="60" width="210" height="30" as="geometry" />
        </mxCell>
        <mxCell id="LShmClLfT84cLfDmFWbB-76" value="" style="shape=partialRectangle;html=1;whiteSpace=wrap;connectable=0;fillColor=none;top=0;left=0;bottom=0;right=0;overflow=hidden;strokeColor=inherit;fontSize=16;" vertex="1" parent="LShmClLfT84cLfDmFWbB-75">
          <mxGeometry width="47" height="30" as="geometry">
            <mxRectangle width="47" height="30" as="alternateBounds" />
          </mxGeometry>
        </mxCell>
        <mxCell id="LShmClLfT84cLfDmFWbB-77" value="trial_return_date" style="shape=partialRectangle;html=1;whiteSpace=wrap;connectable=0;fillColor=none;top=0;left=0;bottom=0;right=0;align=left;spacingLeft=6;overflow=hidden;strokeColor=inherit;fontSize=16;" vertex="1" parent="LShmClLfT84cLfDmFWbB-75">
          <mxGeometry x="47" width="163" height="30" as="geometry">
            <mxRectangle width="163" height="30" as="alternateBounds" />
          </mxGeometry>
        </mxCell>
        <mxCell id="LShmClLfT84cLfDmFWbB-91" value="" style="edgeStyle=orthogonalEdgeStyle;endArrow=ERzeroToMany;startArrow=ERmandOne;endFill=1;startFill=0;entryX=0;entryY=0.5;entryDx=0;entryDy=0;exitX=0.993;exitY=0.844;exitDx=0;exitDy=0;exitPerimeter=0;" edge="1" parent="1" source="C-vyLk0tnHw3VtMMgP7b-3" target="LShmClLfT84cLfDmFWbB-1">
          <mxGeometry width="100" height="100" relative="1" as="geometry">
            <mxPoint x="300" y="280" as="sourcePoint" />
            <mxPoint x="527" y="310" as="targetPoint" />
            <Array as="points">
              <mxPoint x="330" y="284" />
              <mxPoint x="330" y="90" />
            </Array>
          </mxGeometry>
        </mxCell>
        <mxCell id="LShmClLfT84cLfDmFWbB-92" value="" style="edgeStyle=orthogonalEdgeStyle;endArrow=ERzeroToMany;startArrow=ERmandOne;endFill=1;startFill=0;exitX=1;exitY=0.5;exitDx=0;exitDy=0;entryX=-0.003;entryY=0.333;entryDx=0;entryDy=0;entryPerimeter=0;" edge="1" parent="1" source="C-vyLk0tnHw3VtMMgP7b-24" target="LShmClLfT84cLfDmFWbB-1">
          <mxGeometry width="100" height="100" relative="1" as="geometry">
            <mxPoint x="300" y="70" as="sourcePoint" />
            <mxPoint x="530" y="140" as="targetPoint" />
          </mxGeometry>
        </mxCell>
        <mxCell id="LShmClLfT84cLfDmFWbB-22" value="" style="group" vertex="1" connectable="0" parent="1">
          <mxGeometry x="510" y="20" width="220" height="140" as="geometry" />
        </mxCell>
        <mxCell id="LShmClLfT84cLfDmFWbB-1" value="" style="shape=process;whiteSpace=wrap;html=1;backgroundOutline=1;fillStyle=solid;" vertex="1" parent="LShmClLfT84cLfDmFWbB-22">
          <mxGeometry width="220" height="140" as="geometry" />
        </mxCell>
        <mxCell id="LShmClLfT84cLfDmFWbB-14" value="" style="shape=internalStorage;whiteSpace=wrap;html=1;backgroundOutline=1;container=1;dx=50;dy=20;" vertex="1" parent="LShmClLfT84cLfDmFWbB-22">
          <mxGeometry x="20" width="180" height="140" as="geometry" />
        </mxCell>
        <mxCell id="LShmClLfT84cLfDmFWbB-26" value="inventory_id&lt;br&gt;&lt;br&gt;customer_id&lt;br&gt;&lt;br&gt;transaction_number" style="text;html=1;strokeColor=none;fillColor=none;align=center;verticalAlign=middle;whiteSpace=wrap;rounded=0;" vertex="1" parent="LShmClLfT84cLfDmFWbB-14">
          <mxGeometry x="50" y="20" width="140" height="120" as="geometry" />
        </mxCell>
        <mxCell id="LShmClLfT84cLfDmFWbB-28" value="CPK/FK" style="text;html=1;strokeColor=none;fillColor=none;align=center;verticalAlign=middle;whiteSpace=wrap;rounded=0;" vertex="1" parent="LShmClLfT84cLfDmFWbB-14">
          <mxGeometry y="65" width="50" height="30" as="geometry" />
        </mxCell>
        <mxCell id="LShmClLfT84cLfDmFWbB-30" value="CPK/FK" style="text;html=1;strokeColor=none;fillColor=none;align=center;verticalAlign=middle;whiteSpace=wrap;rounded=0;" vertex="1" parent="LShmClLfT84cLfDmFWbB-14">
          <mxGeometry y="95" width="50" height="30" as="geometry" />
        </mxCell>
        <mxCell id="LShmClLfT84cLfDmFWbB-29" value="CPK/FK" style="text;html=1;strokeColor=none;fillColor=none;align=center;verticalAlign=middle;whiteSpace=wrap;rounded=0;" vertex="1" parent="LShmClLfT84cLfDmFWbB-14">
          <mxGeometry y="35" width="50" height="30" as="geometry" />
        </mxCell>
        <mxCell id="LShmClLfT84cLfDmFWbB-23" value="&lt;b&gt;Sale&lt;/b&gt;" style="text;html=1;strokeColor=none;fillColor=none;align=center;verticalAlign=middle;whiteSpace=wrap;rounded=0;" vertex="1" parent="LShmClLfT84cLfDmFWbB-22">
          <mxGeometry x="40" width="160" height="20" as="geometry" />
        </mxCell>
        <mxCell id="LShmClLfT84cLfDmFWbB-105" value="(0,N)" style="text;html=1;strokeColor=none;fillColor=none;align=center;verticalAlign=middle;whiteSpace=wrap;rounded=0;" vertex="1" parent="LShmClLfT84cLfDmFWbB-22">
          <mxGeometry x="-60" y="50" width="60" height="30" as="geometry" />
        </mxCell>
        <mxCell id="LShmClLfT84cLfDmFWbB-106" value="(0,N)" style="text;html=1;strokeColor=none;fillColor=none;align=center;verticalAlign=middle;whiteSpace=wrap;rounded=0;" vertex="1" parent="LShmClLfT84cLfDmFWbB-22">
          <mxGeometry x="-60" y="90" width="60" height="30" as="geometry" />
        </mxCell>
        <mxCell id="LShmClLfT84cLfDmFWbB-93" value="" style="edgeStyle=orthogonalEdgeStyle;endArrow=ERzeroToMany;startArrow=ERmandOne;endFill=1;startFill=0;entryX=-0.004;entryY=0.797;entryDx=0;entryDy=0;entryPerimeter=0;exitX=0;exitY=0.5;exitDx=0;exitDy=0;" edge="1" parent="1" source="C-vyLk0tnHw3VtMMgP7b-14" target="LShmClLfT84cLfDmFWbB-1">
          <mxGeometry width="100" height="100" relative="1" as="geometry">
            <mxPoint x="790" y="90" as="sourcePoint" />
            <mxPoint x="502" y="126" as="targetPoint" />
            <Array as="points">
              <mxPoint x="760" y="105" />
              <mxPoint x="760" y="190" />
              <mxPoint x="470" y="190" />
              <mxPoint x="470" y="132" />
            </Array>
          </mxGeometry>
        </mxCell>
        <mxCell id="LShmClLfT84cLfDmFWbB-94" value="" style="edgeStyle=orthogonalEdgeStyle;endArrow=ERzeroToMany;startArrow=ERmandOne;endFill=1;startFill=0;exitX=0;exitY=0.5;exitDx=0;exitDy=0;entryX=0;entryY=0.75;entryDx=0;entryDy=0;" edge="1" parent="1" source="LShmClLfT84cLfDmFWbB-45" target="LShmClLfT84cLfDmFWbB-32">
          <mxGeometry width="100" height="100" relative="1" as="geometry">
            <mxPoint x="839.97" y="270" as="sourcePoint" />
            <mxPoint x="400" y="370" as="targetPoint" />
            <Array as="points">
              <mxPoint x="740" y="295" />
              <mxPoint x="740" y="420" />
              <mxPoint x="400" y="420" />
              <mxPoint x="400" y="315" />
            </Array>
          </mxGeometry>
        </mxCell>
        <mxCell id="LShmClLfT84cLfDmFWbB-95" value="" style="edgeStyle=orthogonalEdgeStyle;endArrow=ERzeroToOne;startArrow=ERmandOne;endFill=0;startFill=0;exitX=1;exitY=0.5;exitDx=0;exitDy=0;entryX=0;entryY=0.5;entryDx=0;entryDy=0;" edge="1" parent="1" source="LShmClLfT84cLfDmFWbB-45" target="LShmClLfT84cLfDmFWbB-72">
          <mxGeometry width="100" height="100" relative="1" as="geometry">
            <mxPoint x="1050" y="300" as="sourcePoint" />
            <mxPoint x="1200" y="280" as="targetPoint" />
            <Array as="points">
              <mxPoint x="1060" y="295" />
              <mxPoint x="1060" y="295" />
            </Array>
          </mxGeometry>
        </mxCell>
        <mxCell id="LShmClLfT84cLfDmFWbB-96" value="" style="edgeStyle=orthogonalEdgeStyle;endArrow=ERzeroToOne;startArrow=ERmandOne;endFill=0;startFill=0;exitX=1;exitY=0.5;exitDx=0;exitDy=0;entryX=0;entryY=0.5;entryDx=0;entryDy=0;" edge="1" parent="1" source="C-vyLk0tnHw3VtMMgP7b-14" target="LShmClLfT84cLfDmFWbB-52">
          <mxGeometry width="100" height="100" relative="1" as="geometry">
            <mxPoint x="1060" y="130" as="sourcePoint" />
            <mxPoint x="1235" y="140" as="targetPoint" />
            <Array as="points">
              <mxPoint x="1080" y="105" />
              <mxPoint x="1080" y="115" />
            </Array>
          </mxGeometry>
        </mxCell>
        <mxCell id="LShmClLfT84cLfDmFWbB-97" value="(C)" style="text;html=1;strokeColor=none;fillColor=none;align=center;verticalAlign=middle;whiteSpace=wrap;rounded=0;" vertex="1" parent="1">
          <mxGeometry x="280" width="60" height="30" as="geometry" />
        </mxCell>
        <mxCell id="LShmClLfT84cLfDmFWbB-98" value="(0,4)" style="text;html=1;strokeColor=none;fillColor=none;align=center;verticalAlign=middle;whiteSpace=wrap;rounded=0;" vertex="1" parent="1">
          <mxGeometry x="420" y="260" width="60" height="30" as="geometry" />
        </mxCell>
        <mxCell id="LShmClLfT84cLfDmFWbB-104" value="(0,N)" style="text;html=1;strokeColor=none;fillColor=none;align=center;verticalAlign=middle;whiteSpace=wrap;rounded=0;" vertex="1" parent="1">
          <mxGeometry x="450" y="40" width="60" height="30" as="geometry" />
        </mxCell>
        <mxCell id="LShmClLfT84cLfDmFWbB-108" value="(0,1)" style="text;html=1;strokeColor=none;fillColor=none;align=center;verticalAlign=middle;whiteSpace=wrap;rounded=0;" vertex="1" parent="1">
          <mxGeometry x="1050" y="265" width="60" height="30" as="geometry" />
        </mxCell>
        <mxCell id="LShmClLfT84cLfDmFWbB-107" value="(0,1)" style="text;html=1;strokeColor=none;fillColor=none;align=center;verticalAlign=middle;whiteSpace=wrap;rounded=0;" vertex="1" parent="1">
          <mxGeometry x="1070" y="90" width="60" height="30" as="geometry" />
        </mxCell>
        <mxCell id="LShmClLfT84cLfDmFWbB-109" value="(1,1)" style="text;html=1;strokeColor=none;fillColor=none;align=center;verticalAlign=middle;whiteSpace=wrap;rounded=0;" vertex="1" parent="1">
          <mxGeometry x="740" y="265" width="60" height="30" as="geometry" />
        </mxCell>
        <mxCell id="LShmClLfT84cLfDmFWbB-110" value="(1,1)" style="text;html=1;strokeColor=none;fillColor=none;align=center;verticalAlign=middle;whiteSpace=wrap;rounded=0;" vertex="1" parent="1">
          <mxGeometry x="750" y="75" width="60" height="30" as="geometry" />
        </mxCell>
        <mxCell id="LShmClLfT84cLfDmFWbB-111" value="(1,1)" style="text;html=1;strokeColor=none;fillColor=none;align=center;verticalAlign=middle;whiteSpace=wrap;rounded=0;" vertex="1" parent="1">
          <mxGeometry x="290" y="30" width="30" height="20" as="geometry" />
        </mxCell>
        <mxCell id="LShmClLfT84cLfDmFWbB-112" value="(1,1)" style="text;html=1;strokeColor=none;fillColor=none;align=center;verticalAlign=middle;whiteSpace=wrap;rounded=0;" vertex="1" parent="1">
          <mxGeometry x="290" y="70" width="30" height="20" as="geometry" />
        </mxCell>
        <mxCell id="LShmClLfT84cLfDmFWbB-114" value="(1,1)" style="text;html=1;strokeColor=none;fillColor=none;align=center;verticalAlign=middle;whiteSpace=wrap;rounded=0;" vertex="1" parent="1">
          <mxGeometry x="290" y="245" width="30" height="20" as="geometry" />
        </mxCell>
        <mxCell id="LShmClLfT84cLfDmFWbB-115" value="(1,1)" style="text;html=1;strokeColor=none;fillColor=none;align=center;verticalAlign=middle;whiteSpace=wrap;rounded=0;" vertex="1" parent="1">
          <mxGeometry x="295" y="290" width="30" height="20" as="geometry" />
        </mxCell>
        <mxCell id="LShmClLfT84cLfDmFWbB-117" value="(1,1)" style="text;html=1;strokeColor=none;fillColor=none;align=center;verticalAlign=middle;whiteSpace=wrap;rounded=0;" vertex="1" parent="1">
          <mxGeometry x="1040" y="270" width="30" height="20" as="geometry" />
        </mxCell>
        <mxCell id="LShmClLfT84cLfDmFWbB-118" value="(1,1)" style="text;html=1;strokeColor=none;fillColor=none;align=center;verticalAlign=middle;whiteSpace=wrap;rounded=0;" vertex="1" parent="1">
          <mxGeometry x="1050" y="75" width="30" height="20" as="geometry" />
        </mxCell>
        <mxCell id="LShmClLfT84cLfDmFWbB-119" value="(0,N)" style="text;html=1;strokeColor=none;fillColor=none;align=center;verticalAlign=middle;whiteSpace=wrap;rounded=0;" vertex="1" parent="1">
          <mxGeometry x="460" y="320" width="30" height="20" as="geometry" />
        </mxCell>
        <mxCell id="LShmClLfT84cLfDmFWbB-123" value="(0,N)" style="text;html=1;strokeColor=none;fillColor=none;align=center;verticalAlign=middle;whiteSpace=wrap;rounded=0;" vertex="1" parent="1">
          <mxGeometry x="480" y="230" width="30" height="20" as="geometry" />
        </mxCell>
      </root>
    </mxGraphModel>
  </diagram>
</mxfile>
